# MagicaVoxel @ Ephtracy

# group
o 

# material
mtllib apple.mtl
usemtl palette

# normals
vn -1 0 0
vn 1 0 0
vn 0 0 1
vn 0 0 -1
vn 0 -1 0
vn 0 1 0

# texcoords
vt 0.537109 0.5
vt 0.841797 0.5
vt 0.900391 0.5
vt 0.994141 0.5

# verts
v -0.5 0.3 0.1
v -0.5 0.3 -1.49012e-08
v -0.5 0.7 0.1
v -0.5 0.7 -1.49012e-08
v -0.4 0.2 0.1
v -0.4 0.2 -1.49012e-08
v -0.4 0.3 0.1
v -0.4 0.3 -1.49012e-08
v -0.4 0.7 0.1
v -0.4 0.7 -1.49012e-08
v -0.4 0.8 0.1
v -0.4 0.8 -1.49012e-08
v -0.3 0.1 0.1
v -0.3 0.1 -1.49012e-08
v -0.3 0.2 0.1
v -0.3 0.2 -1.49012e-08
v -0.3 0.8 0.1
v -0.3 0.8 -1.49012e-08
v -0.3 0.9 0.1
v -0.3 0.9 -1.49012e-08
v -0.2 0 0.1
v -0.2 0 -1.49012e-08
v -0.2 0.1 0.1
v -0.2 0.1 -1.49012e-08
v -0.1 0.9 0.1
v -0.1 0.9 -1.49012e-08
v -0.1 1 0.1
v -0.1 1 -1.49012e-08
v 0 1 0.1
v 0 1 -1.49012e-08
v 0 1.1 0.1
v 0 1.1 -1.49012e-08
v 0.1 0.8 0.1
v 0.1 0.8 -1.49012e-08
v 0.1 0.9 0.1
v 0.1 0.9 -1.49012e-08
v 0 0.8 0.1
v 0 0.8 -1.49012e-08
v 0 0.9 0.1
v 0 0.9 -1.49012e-08
v 0.1 0.9 0.1
v 0.1 0.9 -1.49012e-08
v 0.1 1 0.1
v 0.1 1 -1.49012e-08
v 0.2 0 0.1
v 0.2 0 -1.49012e-08
v 0.2 0.1 0.1
v 0.2 0.1 -1.49012e-08
v 0.2 1 0.1
v 0.2 1 -1.49012e-08
v 0.2 1.1 0.1
v 0.2 1.1 -1.49012e-08
v 0.3 0.1 0.1
v 0.3 0.1 -1.49012e-08
v 0.3 0.2 0.1
v 0.3 0.2 -1.49012e-08
v 0.3 0.8 0.1
v 0.3 0.8 -1.49012e-08
v 0.3 0.9 0.1
v 0.3 0.9 -1.49012e-08
v 0.4 0.2 0.1
v 0.4 0.2 -1.49012e-08
v 0.4 0.3 0.1
v 0.4 0.3 -1.49012e-08
v 0.4 0.7 0.1
v 0.4 0.7 -1.49012e-08
v 0.4 0.8 0.1
v 0.4 0.8 -1.49012e-08
v 0.5 0.3 0.1
v 0.5 0.3 -1.49012e-08
v 0.5 0.7 0.1
v 0.5 0.7 -1.49012e-08
v -0.5 0.3 0.1
v -0.5 0.7 0.1
v -0.4 0.2 0.1
v -0.4 0.3 0.1
v -0.4 0.7 0.1
v -0.4 0.8 0.1
v -0.3 0.1 0.1
v -0.3 0.2 0.1
v -0.3 0.3 0.1
v -0.3 0.7 0.1
v -0.3 0.8 0.1
v -0.3 0.9 0.1
v -0.2 0 0.1
v -0.2 0.1 0.1
v -0.2 0.2 0.1
v -0.1 0.7 0.1
v -0.1 0.8 0.1
v -0.1 0.9 0.1
v -0.1 1 0.1
v 0 0.8 0.1
v 0 0.9 0.1
v 0 1 0.1
v 0 1.1 0.1
v 0.1 0.7 0.1
v 0.1 0.8 0.1
v 0.1 0.9 0.1
v 0.1 1 0.1
v 0.2 0 0.1
v 0.2 0.1 0.1
v 0.2 0.2 0.1
v 0.2 1 0.1
v 0.2 1.1 0.1
v 0.3 0.1 0.1
v 0.3 0.2 0.1
v 0.3 0.3 0.1
v 0.3 0.7 0.1
v 0.3 0.8 0.1
v 0.3 0.9 0.1
v 0.4 0.2 0.1
v 0.4 0.3 0.1
v 0.4 0.7 0.1
v 0.4 0.8 0.1
v 0.5 0.3 0.1
v 0.5 0.7 0.1
v -0.5 0.3 -1.49012e-08
v -0.5 0.7 -1.49012e-08
v -0.4 0.2 -1.49012e-08
v -0.4 0.3 -1.49012e-08
v -0.4 0.7 -1.49012e-08
v -0.4 0.8 -1.49012e-08
v -0.3 0.1 -1.49012e-08
v -0.3 0.2 -1.49012e-08
v -0.3 0.3 -1.49012e-08
v -0.3 0.7 -1.49012e-08
v -0.3 0.8 -1.49012e-08
v -0.3 0.9 -1.49012e-08
v -0.2 0 -1.49012e-08
v -0.2 0.1 -1.49012e-08
v -0.2 0.2 -1.49012e-08
v -0.1 0.7 -1.49012e-08
v -0.1 0.8 -1.49012e-08
v -0.1 0.9 -1.49012e-08
v -0.1 1 -1.49012e-08
v 0 0.8 -1.49012e-08
v 0 0.9 -1.49012e-08
v 0 1 -1.49012e-08
v 0 1.1 -1.49012e-08
v 0.1 0.7 -1.49012e-08
v 0.1 0.8 -1.49012e-08
v 0.1 0.9 -1.49012e-08
v 0.1 1 -1.49012e-08
v 0.2 0 -1.49012e-08
v 0.2 0.1 -1.49012e-08
v 0.2 0.2 -1.49012e-08
v 0.2 1 -1.49012e-08
v 0.2 1.1 -1.49012e-08
v 0.3 0.1 -1.49012e-08
v 0.3 0.2 -1.49012e-08
v 0.3 0.3 -1.49012e-08
v 0.3 0.7 -1.49012e-08
v 0.3 0.8 -1.49012e-08
v 0.3 0.9 -1.49012e-08
v 0.4 0.2 -1.49012e-08
v 0.4 0.3 -1.49012e-08
v 0.4 0.7 -1.49012e-08
v 0.4 0.8 -1.49012e-08
v 0.5 0.3 -1.49012e-08
v 0.5 0.7 -1.49012e-08
v -0.2 0 0.1
v 0.2 0 0.1
v -0.2 0 -1.49012e-08
v 0.2 0 -1.49012e-08
v -0.3 0.1 0.1
v -0.2 0.1 0.1
v 0.2 0.1 0.1
v 0.3 0.1 0.1
v -0.3 0.1 -1.49012e-08
v -0.2 0.1 -1.49012e-08
v 0.2 0.1 -1.49012e-08
v 0.3 0.1 -1.49012e-08
v -0.4 0.2 0.1
v -0.3 0.2 0.1
v 0.3 0.2 0.1
v 0.4 0.2 0.1
v -0.4 0.2 -1.49012e-08
v -0.3 0.2 -1.49012e-08
v 0.3 0.2 -1.49012e-08
v 0.4 0.2 -1.49012e-08
v -0.5 0.3 0.1
v -0.4 0.3 0.1
v 0.4 0.3 0.1
v 0.5 0.3 0.1
v -0.5 0.3 -1.49012e-08
v -0.4 0.3 -1.49012e-08
v 0.4 0.3 -1.49012e-08
v 0.5 0.3 -1.49012e-08
v 0 0.9 0.1
v 0.1 0.9 0.1
v 0 0.9 -1.49012e-08
v 0.1 0.9 -1.49012e-08
v 0.1 1 0.1
v 0.2 1 0.1
v 0.1 1 -1.49012e-08
v 0.2 1 -1.49012e-08
v -0.5 0.7 0.1
v -0.4 0.7 0.1
v 0.4 0.7 0.1
v 0.5 0.7 0.1
v -0.5 0.7 -1.49012e-08
v -0.4 0.7 -1.49012e-08
v 0.4 0.7 -1.49012e-08
v 0.5 0.7 -1.49012e-08
v -0.4 0.8 0.1
v -0.3 0.8 0.1
v 0 0.8 0.1
v 0.1 0.8 0.1
v 0.3 0.8 0.1
v 0.4 0.8 0.1
v -0.4 0.8 -1.49012e-08
v -0.3 0.8 -1.49012e-08
v 0 0.8 -1.49012e-08
v 0.1 0.8 -1.49012e-08
v 0.3 0.8 -1.49012e-08
v 0.4 0.8 -1.49012e-08
v -0.3 0.9 0.1
v -0.1 0.9 0.1
v 0.1 0.9 0.1
v 0.3 0.9 0.1
v -0.3 0.9 -1.49012e-08
v -0.1 0.9 -1.49012e-08
v 0.1 0.9 -1.49012e-08
v 0.3 0.9 -1.49012e-08
v -0.1 1 0.1
v 0 1 0.1
v -0.1 1 -1.49012e-08
v 0 1 -1.49012e-08
v 0 1.1 0.1
v 0.2 1.1 0.1
v 0 1.1 -1.49012e-08
v 0.2 1.1 -1.49012e-08

# faces
f 3/4/1 2/4/1 1/4/1
f 4/4/1 2/4/1 3/4/1
f 7/4/1 6/4/1 5/4/1
f 8/4/1 6/4/1 7/4/1
f 11/4/1 10/4/1 9/4/1
f 12/4/1 10/4/1 11/4/1
f 15/4/1 14/4/1 13/4/1
f 16/4/1 14/4/1 15/4/1
f 19/4/1 18/4/1 17/4/1
f 20/4/1 18/4/1 19/4/1
f 23/4/1 22/4/1 21/4/1
f 24/4/1 22/4/1 23/4/1
f 27/1/1 26/1/1 25/1/1
f 28/1/1 26/1/1 27/1/1
f 31/3/1 30/3/1 29/3/1
f 32/3/1 30/3/1 31/3/1
f 35/4/1 34/4/1 33/4/1
f 36/4/1 34/4/1 35/4/1
f 37/1/2 38/1/2 39/1/2
f 39/1/2 38/1/2 40/1/2
f 41/3/2 42/3/2 43/3/2
f 43/3/2 42/3/2 44/3/2
f 45/4/2 46/4/2 47/4/2
f 47/4/2 46/4/2 48/4/2
f 49/3/2 50/3/2 51/3/2
f 51/3/2 50/3/2 52/3/2
f 53/4/2 54/4/2 55/4/2
f 55/4/2 54/4/2 56/4/2
f 57/4/2 58/4/2 59/4/2
f 59/4/2 58/4/2 60/4/2
f 61/4/2 62/4/2 63/4/2
f 63/4/2 62/4/2 64/4/2
f 65/4/2 66/4/2 67/4/2
f 67/4/2 66/4/2 68/4/2
f 69/4/2 70/4/2 71/4/2
f 71/4/2 70/4/2 72/4/2
f 76/4/3 74/4/3 73/4/3
f 77/4/3 74/4/3 76/4/3
f 80/4/3 76/4/3 75/4/3
f 81/2/3 77/2/3 76/2/3
f 81/4/3 76/4/3 80/4/3
f 82/4/3 78/4/3 77/4/3
f 82/2/3 77/2/3 81/2/3
f 83/4/3 78/4/3 82/4/3
f 86/4/3 80/4/3 79/4/3
f 87/2/3 81/2/3 80/2/3
f 87/2/3 82/2/3 81/2/3
f 87/4/3 80/4/3 86/4/3
f 87/2/3 83/2/3 82/2/3
f 88/2/3 87/2/3 86/2/3
f 88/2/3 83/2/3 87/2/3
f 89/4/3 84/4/3 83/4/3
f 89/2/3 83/2/3 88/2/3
f 90/4/3 84/4/3 89/4/3
f 92/4/3 89/4/3 88/4/3
f 92/1/3 91/1/3 90/1/3
f 92/1/3 90/1/3 89/1/3
f 93/1/3 91/1/3 92/1/3
f 94/1/3 91/1/3 93/1/3
f 96/2/3 88/2/3 86/2/3
f 96/4/3 92/4/3 88/4/3
f 97/4/3 92/4/3 96/4/3
f 98/3/3 95/3/3 94/3/3
f 98/3/3 94/3/3 93/3/3
f 99/3/3 95/3/3 98/3/3
f 100/4/3 86/4/3 85/4/3
f 101/2/3 97/2/3 96/2/3
f 101/4/3 86/4/3 100/4/3
f 101/2/3 96/2/3 86/2/3
f 102/2/3 97/2/3 101/2/3
f 103/3/3 95/3/3 99/3/3
f 104/3/3 95/3/3 103/3/3
f 105/4/3 102/4/3 101/4/3
f 106/2/3 97/2/3 102/2/3
f 106/4/3 102/4/3 105/4/3
f 107/2/3 97/2/3 106/2/3
f 108/2/3 97/2/3 107/2/3
f 109/4/3 98/4/3 97/4/3
f 109/2/3 97/2/3 108/2/3
f 110/4/3 98/4/3 109/4/3
f 111/4/3 107/4/3 106/4/3
f 112/2/3 108/2/3 107/2/3
f 112/4/3 107/4/3 111/4/3
f 113/4/3 109/4/3 108/4/3
f 113/2/3 108/2/3 112/2/3
f 114/4/3 109/4/3 113/4/3
f 115/4/3 113/4/3 112/4/3
f 116/4/3 113/4/3 115/4/3
f 117/4/4 118/4/4 120/4/4
f 120/4/4 118/4/4 121/4/4
f 119/4/4 120/4/4 124/4/4
f 120/2/4 121/2/4 125/2/4
f 124/4/4 120/4/4 125/4/4
f 121/4/4 122/4/4 126/4/4
f 125/2/4 121/2/4 126/2/4
f 126/4/4 122/4/4 127/4/4
f 123/4/4 124/4/4 130/4/4
f 124/2/4 125/2/4 131/2/4
f 125/2/4 126/2/4 131/2/4
f 130/4/4 124/4/4 131/4/4
f 126/2/4 127/2/4 131/2/4
f 130/2/4 131/2/4 132/2/4
f 131/2/4 127/2/4 132/2/4
f 127/4/4 128/4/4 133/4/4
f 132/2/4 127/2/4 133/2/4
f 133/4/4 128/4/4 134/4/4
f 132/4/4 133/4/4 136/4/4
f 134/1/4 135/1/4 136/1/4
f 133/1/4 134/1/4 136/1/4
f 136/1/4 135/1/4 137/1/4
f 137/1/4 135/1/4 138/1/4
f 130/2/4 132/2/4 140/2/4
f 132/4/4 136/4/4 140/4/4
f 140/4/4 136/4/4 141/4/4
f 138/3/4 139/3/4 142/3/4
f 137/3/4 138/3/4 142/3/4
f 142/3/4 139/3/4 143/3/4
f 129/4/4 130/4/4 144/4/4
f 140/2/4 141/2/4 145/2/4
f 144/4/4 130/4/4 145/4/4
f 130/2/4 140/2/4 145/2/4
f 145/2/4 141/2/4 146/2/4
f 143/3/4 139/3/4 147/3/4
f 147/3/4 139/3/4 148/3/4
f 145/4/4 146/4/4 149/4/4
f 146/2/4 141/2/4 150/2/4
f 149/4/4 146/4/4 150/4/4
f 150/2/4 141/2/4 151/2/4
f 151/2/4 141/2/4 152/2/4
f 141/4/4 142/4/4 153/4/4
f 152/2/4 141/2/4 153/2/4
f 153/4/4 142/4/4 154/4/4
f 150/4/4 151/4/4 155/4/4
f 151/2/4 152/2/4 156/2/4
f 155/4/4 151/4/4 156/4/4
f 152/4/4 153/4/4 157/4/4
f 156/2/4 152/2/4 157/2/4
f 157/4/4 153/4/4 158/4/4
f 156/4/4 157/4/4 159/4/4
f 159/4/4 157/4/4 160/4/4
f 163/4/5 162/4/5 161/4/5
f 164/4/5 162/4/5 163/4/5
f 169/4/5 166/4/5 165/4/5
f 170/4/5 166/4/5 169/4/5
f 171/4/5 168/4/5 167/4/5
f 172/4/5 168/4/5 171/4/5
f 177/4/5 174/4/5 173/4/5
f 178/4/5 174/4/5 177/4/5
f 179/4/5 176/4/5 175/4/5
f 180/4/5 176/4/5 179/4/5
f 185/4/5 182/4/5 181/4/5
f 186/4/5 182/4/5 185/4/5
f 187/4/5 184/4/5 183/4/5
f 188/4/5 184/4/5 187/4/5
f 191/3/5 190/3/5 189/3/5
f 192/3/5 190/3/5 191/3/5
f 195/3/5 194/3/5 193/3/5
f 196/3/5 194/3/5 195/3/5
f 197/4/6 198/4/6 201/4/6
f 201/4/6 198/4/6 202/4/6
f 199/4/6 200/4/6 203/4/6
f 203/4/6 200/4/6 204/4/6
f 205/4/6 206/4/6 211/4/6
f 211/4/6 206/4/6 212/4/6
f 207/4/6 208/4/6 213/4/6
f 213/4/6 208/4/6 214/4/6
f 209/4/6 210/4/6 215/4/6
f 215/4/6 210/4/6 216/4/6
f 217/4/6 218/4/6 221/4/6
f 221/4/6 218/4/6 222/4/6
f 219/4/6 220/4/6 223/4/6
f 223/4/6 220/4/6 224/4/6
f 225/1/6 226/1/6 227/1/6
f 227/1/6 226/1/6 228/1/6
f 229/3/6 230/3/6 231/3/6
f 231/3/6 230/3/6 232/3/6
