# MagicaVoxel @ Ephtracy

# group
o 

# material
mtllib Wood.mtl
usemtl palette

# normals
vn -1 0 0
vn 1 0 0
vn 0 0 1
vn 0 0 -1
vn 0 -1 0
vn 0 1 0

# texcoords
vt 0.306641 0.5
vt 0.310547 0.5
vt 0.337891 0.5
vt 0.341797 0.5
vt 0.369141 0.5

# verts
v -0.5 0 0.5
v -0.5 0 0.4
v -0.5 0 0.2
v -0.5 0 0.1
v -0.5 0 -0.1
v -0.5 0 -0.2
v -0.5 0 -0.5
v -0.5 0.1 0.3
v -0.5 0.1 0.2
v -0.5 0.1 0.1
v -0.5 0.1 -0.1
v -0.5 0.1 -0.2
v -0.5 0.1 -0.3
v -0.5 0.2 -0.3
v -0.5 0.2 -0.4
v -0.5 0.3 0.5
v -0.5 0.3 0.4
v -0.5 0.3 0.3
v -0.5 0.3 0.2
v -0.5 0.4 0.2
v -0.5 0.4 0.1
v -0.5 0.4 0
v -0.5 0.4 -0.3
v -0.5 0.4 -0.4
v -0.5 0.5 0.4
v -0.5 0.5 0.3
v -0.5 0.5 -0.1
v -0.5 0.5 -0.2
v -0.5 0.5 -0.3
v -0.5 0.7 0.4
v -0.5 0.7 0.3
v -0.5 0.7 0.2
v -0.5 0.7 0.1
v -0.5 0.7 0
v -0.5 0.9 0.5
v -0.5 0.9 0.4
v -0.5 0.9 0.3
v -0.5 0.9 -0.1
v -0.5 0.9 -0.2
v -0.5 1 0.5
v -0.5 1 0.4
v -0.5 1 0.1
v -0.5 1 0
v -0.5 1 -0.5
v 0.5 0 0.5
v 0.5 0 0.4
v 0.5 0 0.3
v 0.5 0 0.1
v 0.5 0 0
v 0.5 0 -0.4
v 0.5 0 -0.5
v 0.5 0.2 0.4
v 0.5 0.2 0.3
v 0.5 0.2 0.2
v 0.5 0.2 0.1
v 0.5 0.2 0
v 0.5 0.2 -0.3
v 0.5 0.2 -0.4
v 0.5 0.2 -0.5
v 0.5 0.3 0
v 0.5 0.3 -0.1
v 0.5 0.3 -0.2
v 0.5 0.3 -0.3
v 0.5 0.3 -0.4
v 0.5 0.4 0.4
v 0.5 0.4 0.3
v 0.5 0.4 0.2
v 0.5 0.4 -0.4
v 0.5 0.4 -0.5
v 0.5 0.5 0.2
v 0.5 0.5 0.1
v 0.5 0.5 0
v 0.5 0.5 -0.1
v 0.5 0.6 0.5
v 0.5 0.6 0.4
v 0.5 0.6 0.3
v 0.5 0.6 -0.2
v 0.5 0.6 -0.3
v 0.5 0.6 -0.4
v 0.5 0.8 0.2
v 0.5 0.8 0.1
v 0.5 0.8 0
v 0.5 0.8 -0.1
v 0.5 0.8 -0.2
v 0.5 0.8 -0.3
v 0.5 0.8 -0.4
v 0.5 0.8 -0.5
v 0.5 0.9 0.5
v 0.5 0.9 0.4
v 0.5 1 0.5
v 0.5 1 0.2
v 0.5 1 0.1
v 0.5 1 0
v 0.5 1 -0.1
v 0.5 1 -0.2
v 0.5 1 -0.3
v 0.5 1 -0.4
v 0.5 1 -0.5
v -0.5 0 0.5
v -0.5 0.3 0.5
v -0.5 0.9 0.5
v -0.5 1 0.5
v -0.4 0 0.5
v -0.4 0.3 0.5
v -0.4 0.4 0.5
v -0.4 0.7 0.5
v -0.4 0.9 0.5
v -0.3 0.3 0.5
v -0.3 0.4 0.5
v -0.3 0.7 0.5
v -0.3 1 0.5
v -0.2 0.4 0.5
v -0.2 0.6 0.5
v -0.2 0.7 0.5
v -0.2 0.8 0.5
v -0.1 0.6 0.5
v -0.1 0.8 0.5
v -0.1 1 0.5
v 0 0 0.5
v 0 0.1 0.5
v 0 0.5 0.5
v 0 0.6 0.5
v 0 0.8 0.5
v 0 1 0.5
v 0.1 0 0.5
v 0.1 0.1 0.5
v 0.1 0.5 0.5
v 0.1 0.8 0.5
v 0.2 0.1 0.5
v 0.2 0.5 0.5
v 0.2 0.9 0.5
v 0.2 1 0.5
v 0.3 0.2 0.5
v 0.3 0.6 0.5
v 0.3 0.9 0.5
v 0.3 1 0.5
v 0.4 0.2 0.5
v 0.4 0.6 0.5
v 0.4 0.9 0.5
v 0.5 0 0.5
v 0.5 0.6 0.5
v 0.5 0.9 0.5
v 0.5 1 0.5
v -0.5 0 -0.5
v -0.5 1 -0.5
v -0.4 0.7 -0.5
v -0.4 1 -0.5
v -0.3 0.2 -0.5
v -0.3 0.4 -0.5
v -0.3 0.7 -0.5
v -0.3 1 -0.5
v -0.2 0.1 -0.5
v -0.2 0.2 -0.5
v -0.2 0.4 -0.5
v -0.2 0.7 -0.5
v -0.1 0.1 -0.5
v -0.1 0.4 -0.5
v -0.1 0.8 -0.5
v -0.1 1 -0.5
v 0 0 -0.5
v 0 0.1 -0.5
v 0 0.3 -0.5
v 0 0.6 -0.5
v 0 0.8 -0.5
v 0 1 -0.5
v 0.1 0 -0.5
v 0.1 0.1 -0.5
v 0.1 0.3 -0.5
v 0.1 0.4 -0.5
v 0.1 0.6 -0.5
v 0.1 0.8 -0.5
v 0.2 0.1 -0.5
v 0.2 0.3 -0.5
v 0.2 0.4 -0.5
v 0.2 0.6 -0.5
v 0.2 0.8 -0.5
v 0.3 0.2 -0.5
v 0.3 0.5 -0.5
v 0.3 0.8 -0.5
v 0.3 1 -0.5
v 0.4 0 -0.5
v 0.4 0.2 -0.5
v 0.4 0.4 -0.5
v 0.4 0.5 -0.5
v 0.5 0 -0.5
v 0.5 0.2 -0.5
v 0.5 0.4 -0.5
v 0.5 0.8 -0.5
v 0.5 1 -0.5
v -0.5 0 0.5
v -0.4 0 0.5
v 0 0 0.5
v 0.1 0 0.5
v 0.5 0 0.5
v -0.5 0 0.4
v -0.4 0 0.4
v 0 0 0.4
v 0.1 0 0.4
v 0.4 0 0.4
v 0.5 0 0.4
v 0.4 0 0.3
v 0.5 0 0.3
v -0.5 0 0.2
v -0.4 0 0.2
v -0.5 0 0.1
v -0.4 0 0.1
v 0.4 0 0.1
v 0.5 0 0.1
v 0.4 0 0
v 0.5 0 0
v -0.5 0 -0.1
v -0.4 0 -0.1
v -0.5 0 -0.2
v -0.4 0 -0.2
v 0 0 -0.4
v 0.1 0 -0.4
v 0.4 0 -0.4
v 0.5 0 -0.4
v -0.5 0 -0.5
v 0 0 -0.5
v 0.1 0 -0.5
v 0.4 0 -0.5
v 0.5 0 -0.5
v -0.5 1 0.5
v -0.3 1 0.5
v -0.1 1 0.5
v 0 1 0.5
v 0.2 1 0.5
v 0.3 1 0.5
v 0.5 1 0.5
v -0.5 1 0.4
v -0.4 1 0.4
v -0.3 1 0.4
v -0.1 1 0.4
v 0 1 0.4
v 0.2 1 0.4
v 0.3 1 0.4
v 0.4 1 0.4
v -0.3 1 0.3
v 0.3 1 0.3
v -0.2 1 0.2
v 0.2 1 0.2
v 0.4 1 0.2
v 0.5 1 0.2
v -0.5 1 0.1
v -0.4 1 0.1
v -0.1 1 0.1
v 0.1 1 0.1
v 0.4 1 0.1
v 0.5 1 0.1
v -0.5 1 0
v -0.4 1 0
v 0.4 1 0
v 0.5 1 0
v -0.1 1 -0.1
v 0.1 1 -0.1
v 0.4 1 -0.1
v 0.5 1 -0.1
v -0.2 1 -0.2
v 0.2 1 -0.2
v 0.4 1 -0.2
v 0.5 1 -0.2
v -0.3 1 -0.3
v 0.3 1 -0.3
v 0.4 1 -0.3
v 0.5 1 -0.3
v -0.4 1 -0.4
v -0.3 1 -0.4
v -0.1 1 -0.4
v 0 1 -0.4
v 0.3 1 -0.4
v 0.4 1 -0.4
v 0.5 1 -0.4
v -0.5 1 -0.5
v -0.4 1 -0.5
v -0.3 1 -0.5
v -0.1 1 -0.5
v 0 1 -0.5
v 0.3 1 -0.5
v 0.5 1 -0.5

# faces
f 8/1/1 3/1/1 2/1/1
f 9/3/1 4/3/1 3/3/1
f 9/1/1 3/1/1 8/1/1
f 10/1/1 5/1/1 4/1/1
f 10/3/1 4/3/1 9/3/1
f 11/3/1 6/3/1 5/3/1
f 11/1/1 5/1/1 10/1/1
f 12/1/1 7/1/1 6/1/1
f 12/3/1 6/3/1 11/3/1
f 13/1/1 7/1/1 12/1/1
f 14/3/1 13/3/1 12/3/1
f 14/1/1 7/1/1 13/1/1
f 15/1/1 7/1/1 14/1/1
f 16/3/1 2/3/1 1/3/1
f 17/1/1 8/1/1 2/1/1
f 17/3/1 2/3/1 16/3/1
f 18/3/1 9/3/1 8/3/1
f 18/1/1 8/1/1 17/1/1
f 19/1/1 11/1/1 10/1/1
f 19/3/1 9/3/1 18/3/1
f 19/1/1 10/1/1 9/1/1
f 19/1/1 12/1/1 11/1/1
f 20/1/1 19/1/1 18/1/1
f 20/1/1 12/1/1 19/1/1
f 21/1/1 12/1/1 20/1/1
f 22/1/1 12/1/1 21/1/1
f 23/5/1 15/5/1 14/5/1
f 23/3/1 14/3/1 12/3/1
f 24/1/1 7/1/1 15/1/1
f 24/5/1 15/5/1 23/5/1
f 25/3/1 18/3/1 17/3/1
f 25/1/1 17/1/1 16/1/1
f 26/1/1 20/1/1 18/1/1
f 26/3/1 18/3/1 25/3/1
f 27/1/1 12/1/1 22/1/1
f 28/3/1 23/3/1 12/3/1
f 28/1/1 12/1/1 27/1/1
f 29/1/1 24/1/1 23/1/1
f 29/3/1 23/3/1 28/3/1
f 30/1/1 25/1/1 16/1/1
f 30/1/1 26/1/1 25/1/1
f 31/1/1 20/1/1 26/1/1
f 31/1/1 26/1/1 30/1/1
f 32/3/1 21/3/1 20/3/1
f 32/1/1 20/1/1 31/1/1
f 33/5/1 22/5/1 21/5/1
f 33/3/1 21/3/1 32/3/1
f 34/1/1 27/1/1 22/1/1
f 34/5/1 22/5/1 33/5/1
f 35/1/1 30/1/1 16/1/1
f 36/3/1 31/3/1 30/3/1
f 36/1/1 30/1/1 35/1/1
f 37/1/1 33/1/1 32/1/1
f 37/3/1 31/3/1 36/3/1
f 37/1/1 32/1/1 31/1/1
f 38/3/1 28/3/1 27/3/1
f 38/1/1 27/1/1 34/1/1
f 39/1/1 29/1/1 28/1/1
f 39/3/1 28/3/1 38/3/1
f 40/3/1 36/3/1 35/3/1
f 41/1/1 37/1/1 36/1/1
f 41/3/1 36/3/1 40/3/1
f 42/1/1 33/1/1 37/1/1
f 42/1/1 37/1/1 41/1/1
f 42/3/1 34/3/1 33/3/1
f 43/1/1 39/1/1 38/1/1
f 43/3/1 34/3/1 42/3/1
f 43/1/1 38/1/1 34/1/1
f 44/1/1 29/1/1 39/1/1
f 44/1/1 39/1/1 43/1/1
f 44/1/1 7/1/1 24/1/1
f 44/1/1 24/1/1 29/1/1
f 45/1/2 46/1/2 52/1/2
f 46/3/2 47/3/2 52/3/2
f 47/1/2 48/1/2 53/1/2
f 52/3/2 47/3/2 53/3/2
f 53/1/2 48/1/2 54/1/2
f 48/3/2 49/3/2 55/3/2
f 54/1/2 48/1/2 55/1/2
f 49/1/2 50/1/2 56/1/2
f 55/3/2 49/3/2 56/3/2
f 56/1/2 50/1/2 57/1/2
f 50/3/2 51/3/2 58/3/2
f 57/1/2 50/1/2 58/1/2
f 58/3/2 51/3/2 59/3/2
f 56/1/2 57/1/2 60/1/2
f 54/1/2 55/1/2 60/1/2
f 55/1/2 56/1/2 60/1/2
f 60/1/2 57/1/2 61/1/2
f 61/1/2 57/1/2 62/1/2
f 57/3/2 58/3/2 63/3/2
f 62/1/2 57/1/2 63/1/2
f 58/5/2 59/5/2 64/5/2
f 63/3/2 58/3/2 64/3/2
f 45/1/2 52/1/2 65/1/2
f 52/5/2 53/5/2 65/5/2
f 53/3/2 54/3/2 66/3/2
f 65/5/2 53/5/2 66/5/2
f 54/1/2 60/1/2 67/1/2
f 66/3/2 54/3/2 67/3/2
f 64/5/2 59/5/2 68/5/2
f 63/1/2 64/1/2 68/1/2
f 68/5/2 59/5/2 69/5/2
f 67/1/2 60/1/2 70/1/2
f 66/1/2 67/1/2 70/1/2
f 70/1/2 60/1/2 71/1/2
f 60/3/2 61/3/2 72/3/2
f 71/1/2 60/1/2 72/1/2
f 61/1/2 62/1/2 73/1/2
f 72/3/2 61/3/2 73/3/2
f 45/1/2 65/1/2 74/1/2
f 65/3/2 66/3/2 75/3/2
f 74/1/2 65/1/2 75/1/2
f 66/1/2 70/1/2 76/1/2
f 75/3/2 66/3/2 76/3/2
f 62/3/2 63/3/2 77/3/2
f 73/1/2 62/1/2 77/1/2
f 72/1/2 73/1/2 77/1/2
f 68/1/2 69/1/2 78/1/2
f 77/3/2 63/3/2 78/3/2
f 63/1/2 68/1/2 78/1/2
f 78/1/2 69/1/2 79/1/2
f 76/1/2 70/1/2 80/1/2
f 75/1/2 76/1/2 80/1/2
f 70/5/2 71/5/2 80/5/2
f 71/3/2 72/3/2 81/3/2
f 80/5/2 71/5/2 81/5/2
f 72/1/2 77/1/2 82/1/2
f 81/3/2 72/3/2 82/3/2
f 82/1/2 77/1/2 83/1/2
f 77/5/2 78/5/2 84/5/2
f 83/1/2 77/1/2 84/1/2
f 78/3/2 79/3/2 85/3/2
f 84/5/2 78/5/2 85/5/2
f 79/1/2 69/1/2 86/1/2
f 85/3/2 79/3/2 86/3/2
f 86/1/2 69/1/2 87/1/2
f 74/3/2 75/3/2 88/3/2
f 75/1/2 80/1/2 89/1/2
f 88/3/2 75/3/2 89/3/2
f 88/1/2 89/1/2 90/1/2
f 80/3/2 81/3/2 91/3/2
f 90/1/2 89/1/2 91/1/2
f 89/1/2 80/1/2 91/1/2
f 81/1/2 82/1/2 92/1/2
f 91/3/2 81/3/2 92/3/2
f 82/3/2 83/3/2 93/3/2
f 92/1/2 82/1/2 93/1/2
f 83/1/2 84/1/2 94/1/2
f 93/3/2 83/3/2 94/3/2
f 84/3/2 85/3/2 95/3/2
f 94/1/2 84/1/2 95/1/2
f 85/1/2 86/1/2 96/1/2
f 95/3/2 85/3/2 96/3/2
f 86/3/2 87/3/2 97/3/2
f 96/1/2 86/1/2 97/1/2
f 97/3/2 87/3/2 98/3/2
f 103/3/3 100/3/3 99/3/3
f 104/1/3 101/1/3 100/1/3
f 104/3/3 100/3/3 103/3/3
f 105/1/3 101/1/3 104/1/3
f 106/1/3 101/1/3 105/1/3
f 107/3/3 102/3/3 101/3/3
f 107/1/3 101/1/3 106/1/3
f 108/1/3 104/1/3 103/1/3
f 108/3/3 105/3/3 104/3/3
f 109/5/3 106/5/3 105/5/3
f 109/3/3 105/3/3 108/3/3
f 110/3/3 107/3/3 106/3/3
f 110/5/3 106/5/3 109/5/3
f 111/3/3 102/3/3 107/3/3
f 111/3/3 107/3/3 110/3/3
f 112/3/3 110/3/3 109/3/3
f 112/1/3 109/1/3 108/1/3
f 113/3/3 110/3/3 112/3/3
f 114/1/3 111/1/3 110/1/3
f 114/3/3 110/3/3 113/3/3
f 115/1/3 111/1/3 114/1/3
f 116/1/3 113/1/3 112/1/3
f 116/3/3 114/3/3 113/3/3
f 116/3/3 115/3/3 114/3/3
f 117/1/3 111/1/3 115/1/3
f 117/3/3 115/3/3 116/3/3
f 118/1/3 111/1/3 117/1/3
f 119/1/3 108/1/3 103/1/3
f 119/1/3 116/1/3 112/1/3
f 119/1/3 112/1/3 108/1/3
f 120/1/3 116/1/3 119/1/3
f 121/1/3 116/1/3 120/1/3
f 122/5/3 117/5/3 116/5/3
f 122/1/3 116/1/3 121/1/3
f 123/3/3 118/3/3 117/3/3
f 123/5/3 117/5/3 122/5/3
f 124/3/3 118/3/3 123/3/3
f 125/3/3 120/3/3 119/3/3
f 126/1/3 121/1/3 120/1/3
f 126/3/3 120/3/3 125/3/3
f 127/3/3 122/3/3 121/3/3
f 127/1/3 121/1/3 126/1/3
f 127/3/3 123/3/3 122/3/3
f 128/1/3 124/1/3 123/1/3
f 128/3/3 123/3/3 127/3/3
f 129/1/3 126/1/3 125/1/3
f 129/3/3 127/3/3 126/3/3
f 130/1/3 128/1/3 127/1/3
f 130/3/3 127/3/3 129/3/3
f 131/1/3 124/1/3 128/1/3
f 131/1/3 128/1/3 130/1/3
f 132/1/3 124/1/3 131/1/3
f 133/1/3 130/1/3 129/1/3
f 133/1/3 131/1/3 130/1/3
f 134/1/3 131/1/3 133/1/3
f 135/3/3 132/3/3 131/3/3
f 135/1/3 131/1/3 134/1/3
f 136/3/3 132/3/3 135/3/3
f 137/3/3 134/3/3 133/3/3
f 137/1/3 133/1/3 129/1/3
f 138/1/3 136/1/3 135/1/3
f 138/3/3 134/3/3 137/3/3
f 138/1/3 135/1/3 134/1/3
f 139/1/3 136/1/3 138/1/3
f 140/1/3 129/1/3 125/1/3
f 140/1/3 137/1/3 129/1/3
f 140/1/3 138/1/3 137/1/3
f 141/3/3 139/3/3 138/3/3
f 141/1/3 138/1/3 140/1/3
f 142/1/3 136/1/3 139/1/3
f 142/3/3 139/3/3 141/3/3
f 143/1/3 136/1/3 142/1/3
f 144/1/4 145/1/4 146/1/4
f 146/1/4 145/1/4 147/1/4
f 144/1/4 146/1/4 148/1/4
f 148/1/4 146/1/4 149/1/4
f 146/3/4 147/3/4 150/3/4
f 149/1/4 146/1/4 150/1/4
f 150/3/4 147/3/4 151/3/4
f 144/1/4 148/1/4 152/1/4
f 148/5/4 149/5/4 153/5/4
f 152/1/4 148/1/4 153/1/4
f 149/3/4 150/3/4 154/3/4
f 153/5/4 149/5/4 154/5/4
f 150/1/4 151/1/4 155/1/4
f 154/3/4 150/3/4 155/3/4
f 144/1/4 152/1/4 156/1/4
f 152/3/4 153/3/4 156/3/4
f 153/3/4 154/3/4 156/3/4
f 154/1/4 155/1/4 157/1/4
f 156/3/4 154/3/4 157/3/4
f 155/1/4 151/1/4 158/1/4
f 157/1/4 155/1/4 158/1/4
f 158/1/4 151/1/4 159/1/4
f 156/1/4 157/1/4 160/1/4
f 144/1/4 156/1/4 160/1/4
f 157/1/4 158/1/4 160/1/4
f 160/1/4 158/1/4 161/1/4
f 161/1/4 158/1/4 162/1/4
f 162/1/4 158/1/4 163/1/4
f 158/3/4 159/3/4 164/3/4
f 163/1/4 158/1/4 164/1/4
f 164/3/4 159/3/4 165/3/4
f 160/3/4 161/3/4 166/3/4
f 161/1/4 162/1/4 167/1/4
f 166/3/4 161/3/4 167/3/4
f 162/3/4 163/3/4 168/3/4
f 167/1/4 162/1/4 168/1/4
f 168/3/4 163/3/4 169/3/4
f 163/1/4 164/1/4 170/1/4
f 169/3/4 163/3/4 170/3/4
f 164/1/4 165/1/4 170/1/4
f 170/1/4 165/1/4 171/1/4
f 166/1/4 167/1/4 172/1/4
f 167/3/4 168/3/4 172/3/4
f 168/1/4 169/1/4 173/1/4
f 172/3/4 168/3/4 173/3/4
f 169/5/4 170/5/4 174/5/4
f 173/1/4 169/1/4 174/1/4
f 170/3/4 171/3/4 175/3/4
f 174/5/4 170/5/4 175/5/4
f 171/1/4 165/1/4 176/1/4
f 175/3/4 171/3/4 176/3/4
f 174/1/4 175/1/4 177/1/4
f 173/1/4 174/1/4 177/1/4
f 175/1/4 176/1/4 177/1/4
f 172/1/4 173/1/4 177/1/4
f 177/1/4 176/1/4 178/1/4
f 176/1/4 165/1/4 179/1/4
f 178/1/4 176/1/4 179/1/4
f 179/1/4 165/1/4 180/1/4
f 166/1/4 172/1/4 181/1/4
f 172/1/4 177/1/4 181/1/4
f 177/3/4 178/3/4 182/3/4
f 181/1/4 177/1/4 182/1/4
f 182/3/4 178/3/4 183/3/4
f 178/1/4 179/1/4 184/1/4
f 183/3/4 178/3/4 184/3/4
f 181/3/4 182/3/4 185/3/4
f 182/5/4 183/5/4 186/5/4
f 185/3/4 182/3/4 186/3/4
f 183/1/4 184/1/4 187/1/4
f 186/5/4 183/5/4 187/5/4
f 179/3/4 180/3/4 188/3/4
f 187/1/4 184/1/4 188/1/4
f 184/1/4 179/1/4 188/1/4
f 188/3/4 180/3/4 189/3/4
f 195/3/5 191/3/5 190/3/5
f 196/1/5 192/1/5 191/1/5
f 196/3/5 191/3/5 195/3/5
f 197/3/5 193/3/5 192/3/5
f 197/1/5 192/1/5 196/1/5
f 198/1/5 194/1/5 193/1/5
f 198/3/5 193/3/5 197/3/5
f 199/1/5 194/1/5 198/1/5
f 200/1/5 194/1/5 199/1/5
f 201/1/5 197/1/5 196/1/5
f 201/1/5 196/1/5 195/1/5
f 201/3/5 200/3/5 199/3/5
f 201/1/5 199/1/5 198/1/5
f 201/1/5 198/1/5 197/1/5
f 202/3/5 200/3/5 201/3/5
f 203/1/5 201/1/5 195/1/5
f 203/1/5 202/1/5 201/1/5
f 204/1/5 202/1/5 203/1/5
f 205/3/5 204/3/5 203/3/5
f 206/1/5 202/1/5 204/1/5
f 206/3/5 204/3/5 205/3/5
f 207/1/5 202/1/5 206/1/5
f 208/1/5 202/1/5 207/1/5
f 209/1/5 206/1/5 205/1/5
f 209/1/5 207/1/5 206/1/5
f 209/3/5 208/3/5 207/3/5
f 210/3/5 208/3/5 209/3/5
f 211/1/5 209/1/5 205/1/5
f 211/1/5 210/1/5 209/1/5
f 212/1/5 210/1/5 211/1/5
f 213/3/5 212/3/5 211/3/5
f 214/1/5 210/1/5 212/1/5
f 214/3/5 212/3/5 213/3/5
f 215/1/5 214/1/5 213/1/5
f 215/1/5 210/1/5 214/1/5
f 216/1/5 210/1/5 215/1/5
f 217/1/5 210/1/5 216/1/5
f 218/1/5 210/1/5 217/1/5
f 219/1/5 215/1/5 213/1/5
f 220/3/5 216/3/5 215/3/5
f 220/1/5 215/1/5 219/1/5
f 221/1/5 217/1/5 216/1/5
f 221/3/5 216/3/5 220/3/5
f 222/3/5 218/3/5 217/3/5
f 222/1/5 217/1/5 221/1/5
f 223/3/5 218/3/5 222/3/5
f 224/3/6 225/3/6 231/3/6
f 231/3/6 225/3/6 232/3/6
f 225/1/6 226/1/6 233/1/6
f 232/3/6 225/3/6 233/3/6
f 226/3/6 227/3/6 234/3/6
f 233/1/6 226/1/6 234/1/6
f 227/1/6 228/1/6 235/1/6
f 234/3/6 227/3/6 235/3/6
f 228/3/6 229/3/6 236/3/6
f 235/1/6 228/1/6 236/1/6
f 229/1/6 230/1/6 237/1/6
f 236/3/6 229/3/6 237/3/6
f 237/1/6 230/1/6 238/1/6
f 235/2/6 236/2/6 239/2/6
f 232/2/6 233/2/6 239/2/6
f 237/2/6 238/2/6 239/2/6
f 236/2/6 237/2/6 239/2/6
f 233/2/6 234/2/6 239/2/6
f 234/2/6 235/2/6 239/2/6
f 239/2/6 238/2/6 240/2/6
f 239/4/6 240/4/6 241/4/6
f 241/4/6 240/4/6 242/4/6
f 238/1/6 230/1/6 243/1/6
f 240/2/6 238/2/6 243/2/6
f 243/1/6 230/1/6 244/1/6
f 231/1/6 232/1/6 245/1/6
f 232/2/6 239/2/6 246/2/6
f 245/1/6 232/1/6 246/1/6
f 241/2/6 242/2/6 247/2/6
f 247/2/6 242/2/6 248/2/6
f 240/2/6 243/2/6 249/2/6
f 243/3/6 244/3/6 249/3/6
f 249/3/6 244/3/6 250/3/6
f 245/3/6 246/3/6 251/3/6
f 246/2/6 239/2/6 252/2/6
f 251/3/6 246/3/6 252/3/6
f 240/2/6 249/2/6 253/2/6
f 249/1/6 250/1/6 253/1/6
f 253/1/6 250/1/6 254/1/6
f 247/4/6 248/4/6 255/4/6
f 241/2/6 247/2/6 255/2/6
f 248/2/6 242/2/6 256/2/6
f 255/4/6 248/4/6 256/4/6
f 253/3/6 254/3/6 257/3/6
f 240/2/6 253/2/6 257/2/6
f 257/3/6 254/3/6 258/3/6
f 239/4/6 241/4/6 259/4/6
f 241/2/6 255/2/6 259/2/6
f 255/2/6 256/2/6 259/2/6
f 242/4/6 240/4/6 260/4/6
f 259/2/6 256/2/6 260/2/6
f 256/2/6 242/2/6 260/2/6
f 257/1/6 258/1/6 261/1/6
f 240/2/6 257/2/6 261/2/6
f 261/1/6 258/1/6 262/1/6
f 239/4/6 259/4/6 263/4/6
f 259/4/6 260/4/6 263/4/6
f 252/2/6 239/2/6 263/2/6
f 260/4/6 240/4/6 264/4/6
f 263/4/6 260/4/6 264/4/6
f 240/2/6 261/2/6 264/2/6
f 261/3/6 262/3/6 265/3/6
f 264/2/6 261/2/6 265/2/6
f 265/3/6 262/3/6 266/3/6
f 252/2/6 263/2/6 267/2/6
f 263/2/6 264/2/6 267/2/6
f 251/1/6 252/1/6 267/1/6
f 264/2/6 265/2/6 267/2/6
f 267/2/6 265/2/6 268/2/6
f 268/2/6 265/2/6 269/2/6
f 269/2/6 265/2/6 270/2/6
f 270/2/6 265/2/6 271/2/6
f 265/1/6 266/1/6 272/1/6
f 271/2/6 265/2/6 272/2/6
f 272/1/6 266/1/6 273/1/6
f 251/1/6 267/1/6 274/1/6
f 267/3/6 268/3/6 275/3/6
f 274/1/6 267/1/6 275/1/6
f 268/1/6 269/1/6 276/1/6
f 275/3/6 268/3/6 276/3/6
f 269/3/6 270/3/6 277/3/6
f 276/1/6 269/1/6 277/1/6
f 270/1/6 271/1/6 278/1/6
f 277/3/6 270/3/6 278/3/6
f 271/3/6 272/3/6 279/3/6
f 278/1/6 271/1/6 279/1/6
f 272/3/6 273/3/6 279/3/6
f 279/3/6 273/3/6 280/3/6
